<svg width="202" height="66" viewBox="0 0 202 66" fill="none" xmlns="http://www.w3.org/2000/svg">
<path d="M0.130859 18.262C0.130859 8.597 7.96588 0.761963 17.6309 0.761963H184.5C194.165 0.761963 202 8.59698 202 18.262V48.5C202 58.165 194.165 66.0001 184.5 66.0001H17.6309C7.96588 66.0001 0.130859 58.165 0.130859 48.5001V18.262Z" fill="#080809"/>
<path d="M44.1166 45.4962C39.3096 45.4706 35.3333 36.41 35.3333 31.7956C35.3333 24.2581 41.4571 22.6079 43.8172 22.6079C44.8808 22.6079 46.0165 22.9936 47.0183 23.3348C47.7187 23.5729 48.4432 23.8187 48.8461 23.8187C49.0873 23.8187 49.6556 23.6096 50.1574 23.4262C51.2275 23.0328 52.5591 22.5439 54.1097 22.5439C54.1124 22.5439 54.1162 22.5439 54.1189 22.5439C55.2767 22.5439 58.7874 22.7786 60.898 25.7052L61.3924 26.3912L60.6808 26.8869C59.6644 27.5951 57.8097 28.887 57.8097 31.4459C57.8097 34.4766 59.9101 35.6421 60.9192 36.2027C61.3647 36.4501 61.8257 36.7053 61.8257 37.2633C61.8257 37.6276 58.6765 45.451 54.1032 45.451C52.9841 45.451 52.1931 45.1404 51.4954 44.8666C50.7894 44.5892 50.1804 44.3504 49.1741 44.3504C48.664 44.3504 48.019 44.573 47.3361 44.8094C46.4029 45.131 45.3466 45.4962 44.1481 45.4962H44.1166Z" fill="white"/>
<path d="M54.5942 15.6736C54.7133 19.6389 51.642 22.3898 48.5744 22.2173C48.0689 19.0529 51.6416 15.6736 54.5942 15.6736Z" fill="white"/>
<path d="M78.9204 24.9934H81.04L78.1573 17.1649H75.6865L72.8038 24.9934H74.9234L75.3473 23.7632H78.4965L78.9204 24.9934ZM75.9287 22.0857L76.9219 19.2115L77.9151 22.0857H75.9287Z" fill="white"/>
<path d="M85.3296 19.4016L84.07 22.9468L82.8103 19.4016H80.7997L83.0404 24.9934H85.0995L87.3402 19.4016H85.3296Z" fill="white"/>
<path d="M92.167 19.4016V19.9272C91.7673 19.5022 91.1738 19.245 90.3623 19.245C88.7756 19.245 87.4675 20.5311 87.4675 22.1975C87.4675 23.8639 88.7756 25.15 90.3623 25.15C91.1738 25.15 91.7673 24.8928 92.167 24.4678V24.9934H93.9839V19.4016H92.167ZM90.7257 23.5619C89.8899 23.5619 89.2843 23.0363 89.2843 22.1975C89.2843 21.3587 89.8899 20.8331 90.7257 20.8331C91.5614 20.8331 92.167 21.3587 92.167 22.1975C92.167 23.0363 91.5614 23.5619 90.7257 23.5619Z" fill="white"/>
<path d="M95.3168 24.9934H97.1336V16.8293H95.3168V24.9934Z" fill="white"/>
<path d="M99.3715 18.9095C99.965 18.9095 100.462 18.451 100.462 17.903C100.462 17.355 99.965 16.8964 99.3715 16.8964C98.778 16.8964 98.2814 17.355 98.2814 17.903C98.2814 18.451 98.778 18.9095 99.3715 18.9095ZM98.4631 24.9934H100.28V19.4016H98.4631V24.9934Z" fill="white"/>
<path d="M105.231 19.245C104.419 19.245 103.826 19.5022 103.426 19.9272V17.1649H101.609V24.9934H103.426V24.4678C103.826 24.8928 104.419 25.15 105.231 25.15C106.818 25.15 108.126 23.8639 108.126 22.1975C108.126 20.5311 106.818 19.245 105.231 19.245ZM104.868 23.5619C104.032 23.5619 103.426 23.0363 103.426 22.1975C103.426 21.3587 104.032 20.8331 104.868 20.8331C105.703 20.8331 106.309 21.3587 106.309 22.1975C106.309 23.0363 105.703 23.5619 104.868 23.5619Z" fill="white"/>
<path d="M109.156 24.9934H110.973V16.8293H109.156V24.9934Z" fill="white"/>
<path d="M113.925 22.8685H118.225C118.273 22.656 118.298 22.4324 118.298 22.1975C118.298 20.5088 116.99 19.245 115.221 19.245C113.307 19.245 111.999 20.5311 111.999 22.1975C111.999 23.8639 113.283 25.15 115.354 25.15C116.505 25.15 117.401 24.7586 117.995 23.9981L116.541 23.2264C116.299 23.4724 115.875 23.6514 115.379 23.6514C114.712 23.6514 114.155 23.4501 113.925 22.8685ZM113.889 21.616C114.058 21.0456 114.519 20.7324 115.209 20.7324C115.754 20.7324 116.299 20.9673 116.493 21.616H113.889Z" fill="white"/>
<path d="M125.263 25.15C127.044 25.15 128.473 23.8639 128.473 22.1975C128.473 20.5311 127.044 19.245 125.263 19.245C123.483 19.245 122.053 20.5311 122.053 22.1975C122.053 23.8639 123.483 25.15 125.263 25.15ZM125.263 23.5172C124.476 23.5172 123.87 22.9915 123.87 22.1975C123.87 21.4035 124.476 20.8778 125.263 20.8778C126.05 20.8778 126.656 21.4035 126.656 22.1975C126.656 22.9915 126.05 23.5172 125.263 23.5172Z" fill="white"/>
<path d="M133.049 19.245C132.25 19.245 131.644 19.5134 131.317 19.9272V19.4016H129.5V24.9934H131.317V21.9403C131.317 21.1462 131.778 20.7884 132.444 20.7884C133.025 20.7884 133.497 21.1127 133.497 21.8061V24.9934H135.314V21.56C135.314 20.0502 134.273 19.245 133.049 19.245Z" fill="white"/>
<path d="M143.139 21.012V19.4016H141.891V17.8359L140.074 18.3391V19.4016H139.105V21.012H140.074V22.9915C140.074 24.5573 140.765 25.2171 143.139 24.9934V23.4724C142.339 23.5172 141.891 23.4724 141.891 22.9915V21.012H143.139Z" fill="white"/>
<path d="M147.716 19.245C146.917 19.245 146.311 19.5134 145.984 19.9272V17.1649H144.168V24.9934H145.984V21.9403C145.984 21.1462 146.445 20.7884 147.111 20.7884C147.692 20.7884 148.165 21.1127 148.165 21.8061V24.9934H149.981V21.56C149.981 20.0502 148.94 19.245 147.716 19.245Z" fill="white"/>
<path d="M152.852 22.8685H157.152C157.2 22.656 157.225 22.4324 157.225 22.1975C157.225 20.5088 155.916 19.245 154.148 19.245C152.234 19.245 150.926 20.5311 150.926 22.1975C150.926 23.8639 152.21 25.15 154.281 25.15C155.432 25.15 156.328 24.7586 156.922 23.9981L155.468 23.2264C155.226 23.4724 154.802 23.6514 154.305 23.6514C153.639 23.6514 153.082 23.4501 152.852 22.8685ZM152.816 21.616C152.985 21.0456 153.446 20.7324 154.136 20.7324C154.681 20.7324 155.226 20.9673 155.42 21.616H152.816Z" fill="white"/>
<path d="M82.9982 45.4968H86.5309L81.7264 32.4492H77.6083L72.8038 45.4968H76.3365L77.043 43.4465H82.2916L82.9982 45.4968ZM78.012 40.6506L79.6673 35.8602L81.3227 40.6506H78.012Z" fill="white"/>
<path d="M93.6707 35.9161C92.3182 35.9161 91.3291 36.3449 90.6629 37.0532V36.1771H87.6348V49.2247H90.6629V44.6208C91.3291 45.3291 92.3182 45.7578 93.6707 45.7578C96.3152 45.7578 98.4954 43.6142 98.4954 40.837C98.4954 38.0597 96.3152 35.9161 93.6707 35.9161ZM93.0651 43.111C91.6722 43.111 90.6629 42.2349 90.6629 40.837C90.6629 39.439 91.6722 38.563 93.0651 38.563C94.458 38.563 95.4674 39.439 95.4674 40.837C95.4674 42.2349 94.458 43.111 93.0651 43.111Z" fill="white"/>
<path d="M106.248 35.9161C104.896 35.9161 103.906 36.3449 103.24 37.0532V36.1771H100.212V49.2247H103.24V44.6208C103.906 45.3291 104.896 45.7578 106.248 45.7578C108.893 45.7578 111.073 43.6142 111.073 40.837C111.073 38.0597 108.893 35.9161 106.248 35.9161ZM105.643 43.111C104.25 43.111 103.24 42.2349 103.24 40.837C103.24 39.439 104.25 38.563 105.643 38.563C107.035 38.563 108.045 39.439 108.045 40.837C108.045 42.2349 107.035 43.111 105.643 43.111Z" fill="white"/>
<path d="M112.79 45.4968H115.818V31.89H112.79V45.4968Z" fill="white"/>
<path d="M120.739 41.9553H127.905C127.986 41.6012 128.026 41.2284 128.026 40.837C128.026 38.0224 125.846 35.9161 122.899 35.9161C119.709 35.9161 117.529 38.0597 117.529 40.837C117.529 43.6142 119.669 45.7578 123.121 45.7578C125.038 45.7578 126.532 45.1054 127.521 43.8379L125.099 42.5518C124.695 42.9619 123.989 43.2601 123.161 43.2601C122.051 43.2601 121.122 42.9246 120.739 41.9553ZM120.678 39.8677C120.961 38.9171 121.728 38.3952 122.878 38.3952C123.787 38.3952 124.695 38.7866 125.018 39.8677H120.678Z" fill="white"/>
<path d="M139.837 45.7578C142.905 45.7578 145.086 44.2666 145.086 41.7503C145.086 38.9917 142.683 38.302 140.544 37.7055C138.343 37.0904 138 36.6804 138 36.0839C138 35.562 138.505 35.096 139.514 35.096C140.806 35.096 141.472 35.6738 141.957 36.6058L144.682 35.1333C143.652 33.2134 141.835 32.1883 139.514 32.1883C137.071 32.1883 134.77 33.6421 134.77 36.1585C134.77 38.6561 136.829 39.5881 138.929 40.1287C141.048 40.6692 141.856 40.9861 141.856 41.7876C141.856 42.2908 141.472 42.85 139.938 42.85C138.343 42.85 137.475 42.1231 136.97 41.042L134.185 42.5332C134.972 44.453 136.869 45.7578 139.837 45.7578Z" fill="white"/>
<path d="M152.218 38.8612V36.1771H150.139V33.5676L147.111 34.4064V36.1771H145.496V38.8612H147.111V42.1604C147.111 44.7699 148.261 45.8696 152.218 45.4968V42.9619C150.886 43.0364 150.139 42.9619 150.139 42.1604V38.8612H152.218Z" fill="white"/>
<path d="M158.58 45.7578C161.548 45.7578 163.93 43.6142 163.93 40.837C163.93 38.0597 161.548 35.9161 158.58 35.9161C155.613 35.9161 153.231 38.0597 153.231 40.837C153.231 43.6142 155.613 45.7578 158.58 45.7578ZM158.58 43.0364C157.268 43.0364 156.259 42.1604 156.259 40.837C156.259 39.5136 157.268 38.6375 158.58 38.6375C159.892 38.6375 160.902 39.5136 160.902 40.837C160.902 42.1604 159.892 43.0364 158.58 43.0364Z" fill="white"/>
<path d="M168.67 37.836V36.1771H165.642V45.4968H168.67V41.2843C168.67 39.439 170.447 38.973 171.698 39.1594V35.9907C170.427 35.9907 169.074 36.5872 168.67 37.836Z" fill="white"/>
<path d="M175.523 41.9553H182.69C182.77 41.6012 182.811 41.2284 182.811 40.837C182.811 38.0224 180.63 35.9161 177.683 35.9161C174.494 35.9161 172.313 38.0597 172.313 40.837C172.313 43.6142 174.453 45.7578 177.905 45.7578C179.823 45.7578 181.317 45.1054 182.306 43.8379L179.884 42.5518C179.48 42.9619 178.773 43.2601 177.946 43.2601C176.835 43.2601 175.907 42.9246 175.523 41.9553ZM175.463 39.8677C175.745 38.9171 176.512 38.3952 177.663 38.3952C178.571 38.3952 179.48 38.7866 179.803 39.8677H175.463Z" fill="white"/>
</svg>
