<svg width="216" height="66" viewBox="0 0 216 66" fill="none" xmlns="http://www.w3.org/2000/svg">
<rect y="0.761963" width="216" height="65.2381" rx="17.5" fill="#080809"/>
<g clip-path="url(#clip0_2_31)">
<path d="M57.5476 32.4522L37.2728 50.4788C36.3234 49.8797 35.7597 48.8832 35.7697 47.8214V17.083C35.7597 16.0212 36.3234 15.0247 37.2728 14.4255L57.5476 32.4522Z" fill="#2196F3"/>
<path d="M64.642 26.1557L57.5476 32.4523L37.2729 14.4257C37.3492 14.371 37.4288 14.3201 37.5111 14.2733C38.5827 13.6737 39.9211 13.6543 41.0125 14.2225L64.642 26.1557Z" fill="#4CAF50"/>
<path d="M73.2396 32.4524C73.2528 33.651 72.5474 34.7582 71.4064 35.3299L64.642 38.749L57.5477 32.4524L64.642 26.1558L71.4064 29.5749C72.5474 30.1466 73.2528 31.2538 73.2396 32.4524Z" fill="#F0BB1F"/>
<path d="M64.642 38.749L41.0125 50.6822C39.9187 51.2416 38.5853 51.2222 37.5111 50.6314C37.4288 50.5846 37.3492 50.5337 37.2729 50.479L57.5477 32.4524L64.642 38.749Z" fill="#F15A2B"/>
</g>
<path d="M96.9456 22.9058H91.2772V24.9934H94.2971C93.8934 25.9925 92.9083 26.6039 91.4064 26.6039C89.21 26.6039 87.8535 25.3066 87.8535 23.5321C87.8535 21.698 89.2746 20.4007 91.1803 20.4007C92.4561 20.4007 93.4735 20.9375 93.9418 21.6234L96.1382 20.4603C95.1853 19.0586 93.3604 18.0745 91.1964 18.0745C87.8696 18.0745 85.2695 20.4901 85.2695 23.5172C85.2695 26.5144 87.8212 28.9301 91.3741 28.9301C94.5394 28.9301 96.9456 26.9916 96.9456 23.8005V22.9058Z" fill="white"/>
<path d="M100.179 26.4249V24.5759H104.216V22.3093H100.179V20.5796H104.62V18.2832H97.5949V28.7213H104.701V26.4249H100.179Z" fill="white"/>
<path d="M112.941 18.2832H104.544V20.5796H107.451V28.7213H110.034V20.5796H112.941V18.2832Z" fill="white"/>
<path d="M116.495 18.2832V28.7213H119.079V18.2832H116.495Z" fill="white"/>
<path d="M127.804 18.2832H119.406V20.5796H122.313V28.7213H124.897V20.5796H127.804V18.2832Z" fill="white"/>
<path d="M136.751 28.9301C139.998 28.9301 142.63 26.5741 142.63 23.5023C142.63 20.4305 139.998 18.0745 136.751 18.0745C133.505 18.0745 130.873 20.4305 130.873 23.5023C130.873 26.5741 133.505 28.9301 136.751 28.9301ZM136.751 26.6039C134.91 26.6039 133.457 25.3662 133.457 23.5023C133.457 21.6383 134.91 20.4007 136.751 20.4007C138.593 20.4007 140.046 21.6383 140.046 23.5023C140.046 25.3662 138.593 26.6039 136.751 26.6039Z" fill="white"/>
<path d="M149.576 18.2832V23.9496L145.215 18.2832H143.277V28.7213H145.861V23.0549L150.222 28.7213H152.16V18.2832H149.576Z" fill="white"/>
<path d="M96.9456 40.6357V41.0383C96.9456 42.3405 96.445 43.439 95.4437 44.3337C94.4425 45.2185 93.1236 45.6609 91.4871 45.6609C89.7645 45.6609 88.3433 45.1439 87.2236 44.1101C86.1039 43.0662 85.5441 41.7888 85.5441 40.2778C85.5441 38.7667 86.0985 37.4943 87.2075 36.4604C88.3164 35.4166 89.7214 34.8947 91.4225 34.8947C92.4561 34.8947 93.4035 35.1234 94.2648 35.5806C95.1369 36.0379 95.8098 36.6493 96.2835 37.4148L95.5245 37.8323C95.1477 37.1762 94.5878 36.6493 93.8449 36.2517C93.1128 35.854 92.3053 35.6552 91.4225 35.6552C89.9583 35.6552 88.7524 36.1025 87.805 36.9972C86.8683 37.882 86.4 38.9755 86.4 40.2778C86.4 41.5801 86.8737 42.6785 87.8212 43.5732C88.7686 44.458 89.9906 44.9004 91.4871 44.9004C92.8114 44.9004 93.8826 44.5673 94.7009 43.9013C95.5191 43.2352 95.9767 42.3952 96.0736 41.3812H91.2772V40.6357H96.9456Z" fill="white"/>
<path d="M108.409 44.0951C107.279 45.139 105.9 45.6609 104.275 45.6609C102.649 45.6609 101.271 45.139 100.14 44.0951C99.01 43.0414 98.4448 41.7689 98.4448 40.2778C98.4448 38.7866 99.01 37.5191 100.14 36.4753C101.271 35.4216 102.649 34.8947 104.275 34.8947C105.9 34.8947 107.279 35.4216 108.409 36.4753C109.54 37.5191 110.105 38.7866 110.105 40.2778C110.105 41.7689 109.54 43.0414 108.409 44.0951ZM100.738 43.5583C101.707 44.453 102.886 44.9004 104.275 44.9004C105.664 44.9004 106.837 44.453 107.795 43.5583C108.764 42.6537 109.249 41.5602 109.249 40.2778C109.249 38.9954 108.764 37.9068 107.795 37.0121C106.837 36.1075 105.664 35.6552 104.275 35.6552C102.886 35.6552 101.707 36.1075 100.738 37.0121C99.7798 37.9068 99.3007 38.9954 99.3007 40.2778C99.3007 41.5602 99.7798 42.6537 100.738 43.5583Z" fill="white"/>
<path d="M121.594 44.0951C120.463 45.139 119.085 45.6609 117.459 45.6609C115.834 45.6609 114.456 45.139 113.325 44.0951C112.195 43.0414 111.629 41.7689 111.629 40.2778C111.629 38.7866 112.195 37.5191 113.325 36.4753C114.456 35.4216 115.834 34.8947 117.459 34.8947C119.085 34.8947 120.463 35.4216 121.594 36.4753C122.724 37.5191 123.289 38.7866 123.289 40.2778C123.289 41.7689 122.724 43.0414 121.594 44.0951ZM113.923 43.5583C114.892 44.453 116.07 44.9004 117.459 44.9004C118.848 44.9004 120.022 44.453 120.98 43.5583C121.949 42.6537 122.433 41.5602 122.433 40.2778C122.433 38.9954 121.949 37.9068 120.98 37.0121C120.022 36.1075 118.848 35.6552 117.459 35.6552C116.07 35.6552 114.892 36.1075 113.923 37.0121C112.964 37.9068 112.485 38.9954 112.485 40.2778C112.485 41.5602 112.964 42.6537 113.923 43.5583Z" fill="white"/>
<path d="M136.216 40.6357V41.0383C136.216 42.3405 135.715 43.439 134.714 44.3337C133.712 45.2185 132.393 45.6609 130.757 45.6609C129.034 45.6609 127.613 45.1439 126.493 44.1101C125.374 43.0662 124.814 41.7888 124.814 40.2778C124.814 38.7667 125.368 37.4943 126.477 36.4604C127.586 35.4166 128.991 34.8947 130.692 34.8947C131.726 34.8947 132.673 35.1234 133.535 35.5806C134.407 36.0379 135.08 36.6493 135.553 37.4148L134.794 37.8323C134.418 37.1762 133.858 36.6493 133.115 36.2517C132.383 35.854 131.575 35.6552 130.692 35.6552C129.228 35.6552 128.022 36.1025 127.075 36.9972C126.138 37.882 125.67 38.9755 125.67 40.2778C125.67 41.5801 126.144 42.6785 127.091 43.5732C128.038 44.458 129.26 44.9004 130.757 44.9004C132.081 44.9004 133.152 44.5673 133.971 43.9013C134.789 43.2352 135.247 42.3952 135.343 41.3812H130.547V40.6357H136.216Z" fill="white"/>
<path d="M139.217 44.7513H144.546V45.4968H138.361V35.0587H139.217V44.7513Z" fill="white"/>
<path d="M147.181 44.7513H152.833V45.4968H146.325V35.0587H152.752V35.8043H147.181V39.8603H152.349V40.6058H147.181V44.7513Z" fill="white"/>
<path d="M163.085 35.0587C164.097 35.0587 164.937 35.3669 165.604 35.9833C166.272 36.5996 166.606 37.37 166.606 38.2945C166.606 39.2191 166.272 39.9895 165.604 40.6058C164.937 41.2122 164.097 41.5154 163.085 41.5154H160.097V45.4968H159.241V35.0587H163.085ZM163.085 40.7699C163.86 40.7699 164.495 40.5363 164.991 40.069C165.497 39.6018 165.75 39.0103 165.75 38.2945C165.75 37.5688 165.497 36.9724 164.991 36.5052C164.495 36.0379 163.86 35.8043 163.085 35.8043H160.097V40.7699H163.085Z" fill="white"/>
<path d="M169.576 44.7513H174.905V45.4968H168.72V35.0587H169.576V44.7513Z" fill="white"/>
<path d="M184.606 45.4968L183.508 42.8426H177.839L176.741 45.4968H175.837L180.23 35.0587H181.134L185.51 45.4968H184.606ZM178.162 42.097H183.201L180.682 36.028L178.162 42.097Z" fill="white"/>
<path d="M193.554 35.0587L189.436 41.2023V45.4968H188.58V41.2023L184.462 35.0587H185.431L189.016 40.4418L192.585 35.0587H193.554Z" fill="white"/>
<defs>
<clipPath id="clip0_2_31">
<rect width="40.3738" height="37.2789" fill="white" transform="translate(34.3177 13.8096)"/>
</clipPath>
</defs>
</svg>
