<svg width="33" height="30" viewBox="0 0 33 30" fill="none" xmlns="http://www.w3.org/2000/svg">
<g clip-path="url(#clip0_2_21)">
<path d="M28.0818 0.0952148H5.24532C2.6368 0.0952148 0.514015 2.05527 0.514015 4.46384V25.5497C0.514015 27.9589 2.6368 29.9183 5.24532 29.9183H28.0818C30.6909 29.9183 32.8131 27.9589 32.8131 25.5497V4.46384C32.8131 2.05527 30.6909 0.0952148 28.0818 0.0952148ZM30.9206 25.5497C30.9206 26.9949 29.6469 28.1709 28.0818 28.1709H5.24532C3.68021 28.1709 2.40654 26.9949 2.40654 25.5497V4.46384C2.40654 3.0187 3.68021 1.84266 5.24532 1.84266H28.0818C29.6469 1.84266 30.9206 3.0187 30.9206 4.46384V25.5497Z" fill="white"/>
<path d="M27.0724 3.64844C26.029 3.64844 25.1799 4.43246 25.1799 5.39589C25.1799 6.35931 26.029 7.14334 27.0724 7.14334C28.1158 7.14334 28.9649 6.35931 28.9649 5.39589C28.9649 4.43246 28.1158 3.64844 27.0724 3.64844Z" fill="white"/>
<path d="M16.6635 7.14331C11.9676 7.14331 8.14719 10.6708 8.14719 15.0068C8.14719 19.3428 11.9676 22.8704 16.6635 22.8704C21.3595 22.8704 25.1799 19.3428 25.1799 15.0068C25.1799 10.6708 21.3595 7.14331 16.6635 7.14331ZM16.6635 21.1229C13.011 21.1229 10.0397 18.3794 10.0397 15.0068C10.0397 11.6343 13.011 8.89076 16.6635 8.89076C20.3161 8.89076 23.2874 11.6343 23.2874 15.0068C23.2874 18.3794 20.3161 21.1229 16.6635 21.1229Z" fill="white"/>
</g>
<defs>
<clipPath id="clip0_2_21">
<rect width="32.2991" height="29.8231" fill="white" transform="translate(0.514015 0.0952148)"/>
</clipPath>
</defs>
</svg>
