<svg width="34" height="26" viewBox="0 0 34 26" fill="none" xmlns="http://www.w3.org/2000/svg">
<path d="M33.0654 3.69185C31.8643 4.17834 30.5844 4.50081 29.2501 4.65738C30.6228 3.90062 31.6705 2.71142 32.1631 1.27804C30.8832 1.98262 29.4701 2.48029 27.9642 2.75802C26.7489 1.56323 25.0169 0.823242 23.1274 0.823242C19.4615 0.823242 16.5101 3.5707 16.5101 6.93885C16.5101 7.42347 16.5545 7.88946 16.6636 8.33308C11.1586 8.08517 6.28748 5.649 3.01518 1.93788C2.44389 2.85308 2.10879 3.90062 2.10879 5.0283C2.10879 7.14575 3.28972 9.02274 5.05002 10.1094C3.98617 10.0908 2.94251 9.8056 2.05832 9.35639C2.05832 9.37502 2.05832 9.39926 2.05832 9.42349C2.05832 12.3946 4.35357 14.8625 7.36344 15.431C6.82445 15.5671 6.23701 15.6323 5.62737 15.6323C5.20344 15.6323 4.77548 15.6099 4.37376 15.5279C5.2317 17.9492 7.66625 19.7292 10.561 19.787C8.30819 21.4142 5.4477 22.3947 2.35103 22.3947C1.808 22.3947 1.28718 22.3723 0.766357 22.3108C3.69952 24.0573 7.1757 25.0545 10.9244 25.0545C23.1092 25.0545 29.7709 15.7348 29.7709 7.65647C29.7709 7.38619 29.7608 7.12524 29.7467 6.86615C31.0609 6.00501 32.1651 4.92951 33.0654 3.69185Z" fill="#080809"/>
</svg>
